<?xml version="1.0" encoding="utf-8"?>
<!-- Generator: Adobe Illustrator 16.0.0, SVG Export Plug-In . SVG Version: 6.00 Build 0)  -->
<!DOCTYPE svg PUBLIC "-//W3C//DTD SVG 1.1//EN" "http://www.w3.org/Graphics/SVG/1.1/DTD/svg11.dtd">
<svg version="1.1" id="Layer_1" xmlns="http://www.w3.org/2000/svg" xmlns:xlink="http://www.w3.org/1999/xlink" x="0px" y="0px"
	 width="1112.342px" height="1061.332px" viewBox="73.274 42.014 1112.342 1061.332"
	 enable-background="new 73.274 42.014 1112.342 1061.332" xml:space="preserve">
<g id="XMLID_384_">
	<path id="XMLID_474_" fill="#DCDBDA" d="M75.275,573.176c0,292.805,248.563,530.17,555.179,530.17
		c306.609,0,555.16-237.365,555.16-530.17c0-292.801-248.551-530.163-555.16-530.163C323.837,43.013,75.275,280.375,75.275,573.176z
		"/>
	<path fill="#E9E8E7" d="M628.453,42.014v1060.33c-306.61,0-555.18-237.369-555.18-530.169S321.844,42.014,628.453,42.014z"/>
	<g id="XMLID_385_">
		<defs>
			<path id="XMLID_386_" d="M75.277,573.176c0,292.805,248.563,530.17,555.179,530.17c306.609,0,555.16-237.365,555.16-530.17
				c0-292.801-248.551-530.163-555.16-530.163C323.839,43.013,75.277,280.375,75.277,573.176z"/>
		</defs>
		<clipPath id="XMLID_2_">
			<use xlink:href="#XMLID_386_"  overflow="visible"/>
		</clipPath>
		<g id="XMLID_387_" clip-path="url(#XMLID_2_)">
			<g id="XMLID_388_">
				<g id="XMLID_460_">
					<g id="XMLID_464_">
						<path id="XMLID_473_" fill="#433534" d="M628.461,175.247c176.054,0,221.514,120.43,217.812,257.112
							c-3.715,136.666,18.039,420.662,18.039,420.662l-235.851,1.662V175.247z"/>
						<path id="XMLID_472_" fill="#DCDBDA" d="M724.813,752.682c51.387,52.146,113.703,76.201,202.238,88.473
							c106.565,14.773,120.544,110.068,120.544,136.555c0,26.482,0,124.637,0,124.637H628.461V752.682H724.813z"/>
						<path id="XMLID_471_" fill="#DCB091" d="M628.461,640.551h98.009v72.643v48.418c0,17.982-31.076,75.01-98.009,75.01V640.551z"
							/>
						<g id="XMLID_469_">
							<path id="XMLID_470_" fill="#DCC0AB" d="M628.461,259.594c144.529,0,165.938,99.788,165.938,222.881
								c0,126.055-111.121,222.883-165.938,222.883V259.594z"/>
						</g>
						<g id="XMLID_467_">
							<path id="XMLID_468_" fill="#EBCFB7" d="M797.648,464.583c10.168-36.295,24.088-36.295,29.973-27.094
								c5.889,9.202-14.449,44.986-14.982,74.124c-0.537,29.136-9.59,33.525-20.856,22.898
								C780.517,523.88,797.648,464.583,797.648,464.583z"/>
						</g>
						<polygon id="XMLID_466_" fill="#DCDBDA" points="724.813,760.352 771.743,785.561 655.22,927.514 628.461,836.621 						"/>
						<polygon id="XMLID_465_" fill="#F3F1F2" points="726.47,753.852 771.743,785.561 655.22,919.355 628.461,836.621 						"/>
					</g>
					<g id="XMLID_461_">
						<path id="XMLID_463_" fill="#F49394" d="M628.461,614.117c21.128,0,13.648,0,52.632,0c0,0-23.41-16.812-36.898-16.884
							c-9.225-0.051-9.023,1.865-15.733,1.865V614.117z"/>
						<path id="XMLID_462_" fill="#F05B5A" d="M628.461,634.338c32.059,0,21.904-5.154,42.408-11.248
							c8.72-2.596,10.224-8.973,10.224-8.973h-52.632V634.338z"/>
					</g>
				</g>
				<path id="XMLID_459_" fill="#433534" d="M628.461,176.247c93.142,0,155.075,38.815,172.843,109.395
					c25.659,101.947-6.791,147.888-10.232,157.126c0,0-162.61-71.897-162.61-182.174V176.247L628.461,176.247z"/>
				<g id="XMLID_454_">
					<path id="XMLID_458_" fill="#373638" d="M821.157,816.527c30.848,11.986,65.64,20.043,105.894,25.627
						c106.565,14.773,120.544,110.068,120.544,136.555c0,26.482,0,124.637,0,124.637H771.368L821.157,816.527z"/>
				</g>
				<g id="XMLID_440_">
					<g id="XMLID_444_">
						<path id="XMLID_453_" fill="#2D2323" d="M630.461,175.247c-176.068,0-221.531,120.43-217.818,257.112
							c3.705,136.666-18.037,420.662-18.037,420.662l235.855,1.662V175.247z"/>
						<path id="XMLID_452_" fill="#E9E8E7" d="M534.103,752.682c-51.394,52.146-113.704,76.201-202.237,88.473
							c-106.576,14.773-120.553,110.068-120.553,136.555c0,26.482,0,124.637,0,124.637h419.148V752.682H534.103z"/>
						<path id="XMLID_451_" fill="#E9C0A3" d="M630.461,640.551h-98.021v72.643v48.418c0,17.982,31.086,75.01,98.021,75.01V640.551z
							"/>
						<g id="XMLID_449_">
							<path id="XMLID_450_" fill="#EBCFB7" d="M630.461,259.594c-144.539,0-165.953,99.788-165.953,222.881
								c0,126.055,111.128,222.883,165.953,222.883V259.594z"/>
						</g>
						<g id="XMLID_447_">
							<path id="XMLID_448_" fill="#EBCFB7" d="M461.264,464.583c-10.17-36.295-24.082-36.295-29.979-27.094
								c-5.887,9.202,14.459,44.986,14.994,74.124c0.537,29.136,9.588,33.525,20.852,22.898
								C478.393,523.88,461.264,464.583,461.264,464.583z"/>
						</g>
						<polygon id="XMLID_446_" fill="#DCDBDA" points="534.103,760.352 487.172,785.561 603.697,927.514 630.461,836.621 						"/>
						<polygon id="XMLID_445_" fill="#F3F1F2" points="532.441,753.852 487.172,785.561 603.697,919.355 630.461,836.621 						"/>
					</g>
					<g id="XMLID_441_">
						<path id="XMLID_443_" fill="#F27979" d="M630.46,614.117c-21.688,0-14.023,0-54.033,0c0,0,24.034-16.812,37.871-16.884
							c9.473-0.051,9.266,1.865,16.162,1.865V614.117z"/>
						<path id="XMLID_442_" fill="#E25657" d="M630.46,634.338c-32.902,0-22.49-5.154-43.533-11.248
							c-8.956-2.596-10.5-8.973-10.5-8.973h54.033V634.338z"/>
					</g>
				</g>
				<g id="XMLID_389_">
					<path id="XMLID_393_" fill="#2D2B2C" d="M435.752,816.527c-30.85,11.986-65.633,20.043-105.887,25.627
						c-106.576,14.773-120.553,110.068-120.553,136.555c0,26.482,0,124.637,0,124.637h276.238L435.752,816.527z"/>
				</g>
				<path fill="#2D2323" d="M801.876,743.588c54.342-181.331,92.326-293.86,62.643-416.217
					C806.868,89.715,516.675,75.63,487.281,224.764c-6.256,31.743-70.186,80.211-37.1,236.546
					c2.543-0.899,8.223-7.037,15.715-16.689c22.477-28.954,61.27-89.519,80.677-135.093
					C801.876,308.733,716.447,687.225,801.876,743.588z"/>
				<g>
					<path fill="#28262D" d="M585.923,433.949c0,0-4.125,2.772-15.395,3.503c-11.27,0.731-37.225-9.515-56.045-8.296
						c-18.819,1.213-24.297,2.813-24.297,2.813s9.779-8.661,27.716-9.82C532.658,421.196,562.794,418.587,585.923,433.949z"/>
					<g>
						<path fill="#532A23" d="M541.357,477.859c0,6.686,5.935,12.105,13.266,12.105c7.332,0,13.268-5.42,13.268-12.105
							c0-6.687-5.936-12.107-13.268-12.107C547.291,465.752,541.357,471.172,541.357,477.859z"/>
						<ellipse fill="#28262D" cx="554.622" cy="475.859" rx="7.219" ry="6.583"/>
						<ellipse fill="#FFFFFF" cx="551.156" cy="474.187" rx="2.334" ry="2.705"/>
					</g>
					<g>
						<g>
							<path fill="#28262D" d="M585.468,485.261c0,0-2.833-4.607-8.692-9.438c-5.86-4.831-14.745-9.885-26.853-10.779
								c-11.998-0.889-19.939,2.52-24.882,6.152c-4.941,3.632-6.884,7.486-6.884,7.486l0.648,3.003l0.65,3.003
								c0,0-1.525-0.572-3.553-1.811s-4.556-3.146-6.563-5.816c0,0,2.577-4.805,8.874-9.4c6.297-4.595,16.315-8.982,31.197-8.146
								c16.992,0.951,26.006,7.388,30.771,13.587C584.949,479.299,585.468,485.261,585.468,485.261z"/>
						</g>
					</g>
				</g>
				<g>
					<path fill="#28262D" d="M670.997,437.974c0,0,4.125,2.772,15.395,3.502c11.27,0.731,37.225-9.515,56.045-8.296
						c18.819,1.214,24.297,2.813,24.297,2.813s-9.779-8.661-27.716-9.821C724.262,425.22,694.126,422.611,670.997,437.974z"/>
					<g>
						<g>
							<path fill="#28262D" d="M666.7,488.783c0,0,2.832-4.608,8.691-9.439c5.859-4.831,14.746-9.885,26.852-10.779
								c12-0.889,19.941,2.52,24.883,6.152s6.885,7.486,6.885,7.486l-0.65,3.003l-0.648,3.003c0,0,1.525-0.572,3.551-1.811
								c2.027-1.239,4.557-3.146,6.564-5.816c0,0-2.576-4.805-8.875-9.401c-6.297-4.595-16.314-8.982-31.195-8.146
								c-16.992,0.951-26.006,7.388-30.771,13.587C667.218,482.821,666.7,488.783,666.7,488.783z"/>
						</g>
					</g>
					<g>
						<path fill="#532A23" d="M688.319,480.731c0,6.686,5.935,12.105,13.266,12.105c7.332,0,13.268-5.42,13.268-12.105
							c0-6.687-5.936-12.107-13.268-12.107C694.253,468.624,688.319,474.044,688.319,480.731z"/>
						<ellipse fill="#28262D" cx="701.584" cy="478.731" rx="7.219" ry="6.583"/>
						<ellipse fill="#FFFFFF" cx="698.118" cy="477.059" rx="2.334" ry="2.705"/>
					</g>
				</g>
			</g>
		</g>
	</g>
</g>
</svg>
