<?xml version="1.0" encoding="utf-8"?>
<!-- Generator: Adobe Illustrator 16.0.0, SVG Export Plug-In . SVG Version: 6.00 Build 0)  -->
<!DOCTYPE svg PUBLIC "-//W3C//DTD SVG 1.1//EN" "http://www.w3.org/Graphics/SVG/1.1/DTD/svg11.dtd">
<svg version="1.1" id="Layer_1" xmlns="http://www.w3.org/2000/svg" xmlns:xlink="http://www.w3.org/1999/xlink" x="0px" y="0px"
	 width="1200px" height="1200px" viewBox="0 0 1200 1200" enable-background="new 0 0 1200 1200" xml:space="preserve">
<circle fill="#F38081" cx="599.119" cy="598" r="600"/>
<path fill="#BFBFBF" d="M944.476,229H253.524C237.333,229,224,242.095,224,258.524v488.572v84.047
	c0,16.19,13.095,29.524,29.523,29.524h690.952c16.19,0,29.524-13.096,29.524-29.524v-84.047V258.524
	C974,242.095,960.905,229,944.476,229z"/>
<rect x="289.714" y="294.714" fill="#FFFFFF" width="618.81" height="500.238"/>
<rect x="363.524" y="925.19" fill="#BFBFBF" width="470.714" height="53.81"/>
<polygon fill="#808080" points="781.619,925.19 747.809,860.667 450.19,860.667 416.381,925.19 "/>
<rect x="427.333" y="313.005" fill="#F38081" width="343.096" height="27.619"/>
<g>
	<rect x="378.762" y="401.576" fill="#ACB3BA" width="440.238" height="24.762"/>
	<rect x="378.762" y="459.195" fill="#ACB3BA" width="440.238" height="24.762"/>
	<rect x="378.762" y="517.053" fill="#ACB3BA" width="440.238" height="24.762"/>
	<rect x="378.762" y="574.672" fill="#ACB3BA" width="211.19" height="24.762"/>
	<rect x="378.762" y="632.528" fill="#ACB3BA" width="440.238" height="24.763"/>
	<rect x="378.762" y="690.147" fill="#ACB3BA" width="440.238" height="24.762"/>
	<rect x="378.762" y="748.005" fill="#ACB3BA" width="174.031" height="24.762"/>
</g>
<g>
	<polygon fill="#404040" points="546.861,773.182 575.728,764.163 555.793,744.229 	"/>
	<polygon fill="#E6E9EE" points="568.365,703.531 555.793,744.229 575.728,764.163 616.425,751.59 	"/>
	
		<rect x="640.18" y="530.277" transform="matrix(-0.7071 -0.7071 0.7071 -0.7071 694.2356 1579.1449)" fill="#404040" width="67.965" height="231.036"/>
	<path fill="#E6E9EE" d="M815.362,520.56l-16.047-16.047l0,0c-8.851-8.851-23.243-8.851-32.094,0l-16.297,16.295l16.047,16.047
		l16.049,16.047l16.047,16.047l16.295-16.295C824.211,543.804,824.211,529.411,815.362,520.56L815.362,520.56z"/>
	<g>
		
			<rect x="731.5" y="540.846" transform="matrix(-0.7071 -0.7071 0.7071 -0.7071 914.6931 1487.8234)" fill="#F38081" width="67.966" height="27.257"/>
	</g>
	<path fill="#808080" d="M600.626,710.314l-7.857-7.857c-0.745-0.745-0.746-1.903,0-2.647l135.242-135.244
		c0.746-0.745,1.904-0.745,2.646,0l7.859,7.858c0.745,0.744,0.745,1.902,0,2.646L603.273,710.314
		C602.611,710.976,601.37,711.06,600.626,710.314z"/>
</g>
</svg>
