<?xml version="1.0" encoding="utf-8"?>
<!-- Generator: Adobe Illustrator 16.0.0, SVG Export Plug-In . SVG Version: 6.00 Build 0)  -->
<!DOCTYPE svg PUBLIC "-//W3C//DTD SVG 1.1//EN" "http://www.w3.org/Graphics/SVG/1.1/DTD/svg11.dtd">
<svg version="1.1" id="Layer_1" xmlns="http://www.w3.org/2000/svg" xmlns:xlink="http://www.w3.org/1999/xlink" x="0px" y="0px"
	 width="51.911px" height="51.912px" viewBox="0 0 51.911 51.912" enable-background="new 0 0 51.911 51.912" xml:space="preserve">
<g>
	<path fill="#503232" d="M51.912,25.956c0,14.334-11.622,25.956-25.957,25.956S-0.001,40.29-0.001,25.956
		C-0.001,11.621,11.621,0,25.956,0S51.912,11.621,51.912,25.956L51.912,25.956z M51.912,25.956"/>
	<path fill="#241616" d="M23.685,51.811c0.748,0.064,1.504,0.101,2.271,0.101c14.335,0,25.957-11.622,25.957-25.956
		c0-0.849-0.043-1.689-0.124-2.517L39.985,11.635h-5.446V21.87c-1.682-1.913-3.671-2.868-5.97-2.868c-1.092,0-2.1,0.172-3.025,0.514
		l-7.881-7.881h-5.738v28.417L23.685,51.811z M23.685,51.811"/>
	<rect x="11.924" y="11.635" fill="#E03B5E" width="5.738" height="28.417"/>
	<path fill="#E03B5E" d="M39.985,40.052h-5.058v-3.024c-1.701,2.38-4.146,3.49-6.436,3.49c-2.364,0-4.393-0.955-6.079-2.861
		c-1.686-1.905-2.529-4.563-2.529-7.976c0-3.49,0.821-6.141,2.461-7.957c1.641-1.816,3.717-2.723,6.224-2.723
		c2.299,0,4.289,0.956,5.97,2.868V11.635h5.446V40.052L39.985,40.052z M25.449,29.313c0,2.198,0.303,3.787,0.91,4.769
		c0.877,1.421,2.106,2.132,3.682,2.132c1.254,0,2.321-0.534,3.198-1.6c0.88-1.066,1.32-2.659,1.32-4.778
		c0-2.364-0.427-4.067-1.281-5.107c-0.852-1.041-1.944-1.561-3.276-1.561c-1.292,0-2.373,0.514-3.246,1.542
		C25.884,25.737,25.449,27.271,25.449,29.313L25.449,29.313z M25.449,29.313"/>
</g>
</svg>
