<?xml version="1.0" encoding="utf-8"?>
<!-- Generator: Adobe Illustrator 16.0.0, SVG Export Plug-In . SVG Version: 6.00 Build 0)  -->
<!DOCTYPE svg PUBLIC "-//W3C//DTD SVG 1.1//EN" "http://www.w3.org/Graphics/SVG/1.1/DTD/svg11.dtd">
<svg version="1.1" id="Layer_1" xmlns="http://www.w3.org/2000/svg" xmlns:xlink="http://www.w3.org/1999/xlink" x="0px" y="0px"
	 width="51.911px" height="51.912px" viewBox="0 0 51.911 51.912" enable-background="new 0 0 51.911 51.912" xml:space="preserve">
<g>
	<path fill="#5F3F1C" d="M51.911,25.956c0,14.334-11.622,25.956-25.956,25.956S0,40.29,0,25.956C0,11.62,11.621,0,25.955,0
		S51.911,11.62,51.911,25.956L51.911,25.956z M51.911,25.956"/>
	<path fill="#473119" d="M51.831,23.923L41.329,13.42h-4.788v4.43l2.453,2.453h-2.453v4.014L25.644,13.42h-5.333l-9.729,24.978
		l13.441,13.441c0.638,0.047,1.282,0.072,1.932,0.072c14.334,0,25.956-11.622,25.956-25.956
		C51.911,25.272,51.884,24.593,51.831,23.923L51.831,23.923z M51.831,23.923"/>
	<path fill="#DB8627" d="M35.645,38.398h-5.487l-2.18-5.675h-9.984l-2.062,5.675h-5.35l9.729-24.978h5.333L35.645,38.398z
		 M26.359,28.515l-3.442-9.269l-3.373,9.269H26.359z M26.359,28.515"/>
	<path fill="#DB8627" d="M36.541,17.85v-4.43h4.788v4.43H36.541z M36.541,38.398V20.303h4.788v18.095H36.541L36.541,38.398z
		 M36.541,38.398"/>
</g>
<line fill="none" stroke="#FFFFFF" stroke-miterlimit="10" x1="16.083" y1="28.767" x2="16.083" y2="28.761"/>
</svg>
