<?xml version="1.0" encoding="utf-8"?>
<!-- Generator: Adobe Illustrator 16.0.0, SVG Export Plug-In . SVG Version: 6.00 Build 0)  -->
<!DOCTYPE svg PUBLIC "-//W3C//DTD SVG 1.1//EN" "http://www.w3.org/Graphics/SVG/1.1/DTD/svg11.dtd">
<svg version="1.1" id="Layer_1" xmlns="http://www.w3.org/2000/svg" xmlns:xlink="http://www.w3.org/1999/xlink" x="0px" y="0px"
	 width="51.911px" height="51.912px" viewBox="0 0 51.911 51.912" enable-background="new 0 0 51.911 51.912" xml:space="preserve">
<g>
	<path fill="#464E23" d="M51.762,25.955c0,14.253-11.555,25.808-25.807,25.808S0.148,40.208,0.148,25.955S11.704,0.148,25.956,0.148
		S51.762,11.702,51.762,25.955L51.762,25.955z M51.762,25.955"/>
	<path fill="#2A2E1C" d="M39.256,26.792l-5.365-5.364h-0.803l-5.363-5.361h-5.895l-1.463,5.56l-5.561-5.56H8.926v19.46L25.149,51.75
		c0.268,0.007,0.537,0.013,0.809,0.013c12.908,0,23.604-9.479,25.506-21.857l-8.477-8.478h-3.73V26.792z M39.256,26.792"/>
	<path fill="#C3D94D" d="M8.926,35.526v-19.46h5.881l3.531,13.274l3.492-13.274h5.895v19.46h-3.652V20.207l-3.863,15.319h-3.781
		l-3.852-15.319v15.319H8.926z M8.926,35.526"/>
	<path fill="#C3D94D" d="M39.522,35.526v-2.111c-0.516,0.754-1.189,1.346-2.025,1.779c-0.836,0.435-1.719,0.651-2.648,0.651
		c-0.947,0-1.797-0.208-2.549-0.624s-1.297-1-1.633-1.752c-0.336-0.753-0.504-1.793-0.504-3.121v-8.921h3.729v6.479
		c0,1.982,0.07,3.197,0.207,3.644s0.387,0.801,0.75,1.062c0.361,0.262,0.822,0.393,1.381,0.393c0.637,0,1.207-0.175,1.713-0.525
		c0.504-0.349,0.85-0.783,1.035-1.301s0.279-1.785,0.279-3.803v-5.948h3.73v14.099H39.52H39.522z M39.522,35.526"/>
</g>
</svg>
