<?xml version="1.0" encoding="utf-8"?>
<!-- Generator: Adobe Illustrator 16.0.0, SVG Export Plug-In . SVG Version: 6.00 Build 0)  -->
<!DOCTYPE svg PUBLIC "-//W3C//DTD SVG 1.1//EN" "http://www.w3.org/Graphics/SVG/1.1/DTD/svg11.dtd">
<svg version="1.1" id="Layer_1" xmlns="http://www.w3.org/2000/svg" xmlns:xlink="http://www.w3.org/1999/xlink" x="0px" y="0px"
	 width="495.564px" height="495.553px" viewBox="0.331 0.334 495.564 495.553" enable-background="new 0.331 0.334 495.564 495.553"
	 xml:space="preserve">
<g>
	<path fill="#FDD945" d="M20.922,332.533c34.225,92.22,122.991,157.954,227.132,157.954c104.131,0,192.906-65.734,227.13-157.954
		l-227.13-21.066L20.922,332.533z M20.922,332.533"/>
	<path d="M248.053,6.103c-104.141,0-192.907,65.724-227.132,157.953l227.132,21.057l227.13-21.057
		C440.96,71.827,352.184,6.103,248.053,6.103L248.053,6.103z M248.053,6.103"/>
	<path fill="#D71F2A" d="M20.922,164.055c-9.724,26.228-15.056,54.613-15.056,84.224c0,29.653,5.332,58.006,15.056,84.254h454.262
		c9.734-26.248,15.057-54.601,15.057-84.254c0-29.611-5.322-57.996-15.057-84.224H20.922z M20.922,164.055"/>
</g>
</svg>
