<?xml version="1.0" encoding="utf-8"?>
<!-- Generator: Adobe Illustrator 16.0.0, SVG Export Plug-In . SVG Version: 6.00 Build 0)  -->
<!DOCTYPE svg PUBLIC "-//W3C//DTD SVG 1.1//EN" "http://www.w3.org/Graphics/SVG/1.1/DTD/svg11.dtd">
<svg version="1.1" id="Layer_1" xmlns="http://www.w3.org/2000/svg" xmlns:xlink="http://www.w3.org/1999/xlink" x="0px" y="0px"
	 width="494.337px" height="494.334px" viewBox="0 0 494.337 494.334" enable-background="new 0 0 494.337 494.334"
	 xml:space="preserve">
<g>
	<g>
		<path fill="#F3B044" d="M112.767,284.526c0,0-37.033-64.498-23.666-103.503l7.451-3.725c0,0-14.901,35.28,15.924,82.394
			c0,0,29.802-54.636,61.867-69.246l3.944,5.04C178.287,195.485,146.294,208.633,112.767,284.526z"/>
		
			<ellipse transform="matrix(0.9976 0.0688 -0.0688 0.9976 12.7762 -8.6782)" fill="#9CABCD" cx="132.344" cy="181.096" rx="26.295" ry="7.305"/>
		<path fill="#9CABCD" d="M237.526,171.455l16.07,122.713h12.271l16.654-122.713h-12.857l-10.518,79.82l-9.057-79.82
			C250.09,171.455,243.768,171.455,237.526,171.455z"/>
		<rect x="284.565" y="234.271" fill="#9CABCD" width="12.271" height="12.857"/>
		<path fill="#9CABCD" d="M306.188,294.167V171.455h14.315v5.897c0,0,6.024-5.897,13.44-5.897v14.079c0,0-9.351-0.529-13.44,6.719
			v101.915H306.188z"/>
		<g>
			<g>
				<path fill="#9CABCD" d="M360.881,171.455c-19.045,0-19.925,17.823-19.925,17.823v14.901h14.316c0,0,0-11.58,0-14.901
					c0-3.323,0.291-7.964,6.208-7.872c6.427,0.099,6.063,7.872,6.063,7.872v29.856c-29.658-0.348-28.488,20.834-28.488,20.834
					L338.91,280.2v0.877c0,12.8,7.416,15.428,16.362,15.428c8.947,0,12.271-6.957,12.271-6.957v4.913h14.315
					c0,0,0-101.861,0-105.183C381.859,185.955,379.927,171.455,360.881,171.455z M367.835,277.952c0,0,0.146,7.597-7.743,7.597
					c-7.157,0-6.283-5.552-6.429-8.327s0-35.061,0-35.061s-0.874-11.833,14.172-12.124V277.952z"/>
			</g>
		</g>
		<polygon fill="#9CABCD" points="388.579,171.747 406.986,294.458 403.365,317.544 416.337,317.542 435.329,171.747 
			421.596,171.747 412.245,250.689 402.604,171.747 		"/>
		<polygon fill="#F3B044" points="412.839,341.062 399.693,341.062 401.865,327.914 415.012,327.914 		"/>
		<g>
			<g>
				<path fill="#9CABCD" d="M218.535,205.346c-2.804-4.312-15.798-19.593-35.213-17.444c-13.896-21.927-37.351-34.762-56.238-34.628
					C103,153.443,92.767,169.56,89.782,175.58c-18.53,12.165-30.774,33.117-30.774,56.939c0,10.66,2.455,20.746,6.823,29.729
					c8.163,19.633,28.425,51.876,73.525,52.08c0,0,43.67,1.628,71.291-37.397C237.891,238.435,222.334,211.189,218.535,205.346z
					 M157.25,168.313c7.287,4.826,12.966,10.11,17.386,15.509c-12.271-11.985-29.044-19.381-47.552-19.381
					c-9.031,0-17.643,1.774-25.528,4.967C108.169,161.558,125.033,149.047,157.25,168.313z M127.084,170.285
					c34.371,0,62.233,27.864,62.233,62.233c0,34.371-27.862,62.233-62.233,62.233c-34.369,0-62.233-27.862-62.233-62.233
					C64.851,198.149,92.715,170.285,127.084,170.285z M207.431,272.547c-25.2,37.763-68.076,36.814-68.076,36.814
					s-29.816,0.646-50.802-20.726c10.958,7.538,24.225,11.96,38.531,11.96c37.305,0,67.585-30.011,68.056-67.204l0.021,0.003
					c0.75-15.125-2.686-28.607-8.664-40.004c17.68-1.72,28.24,16.338,28.24,16.338S232.306,235.273,207.431,272.547z"/>
			</g>
		</g>
	</g>
</g>
<circle fill="none" cx="247.168" cy="247.167" r="247.168"/>
</svg>
