<?xml version="1.0" encoding="utf-8"?>
<!-- Generator: Adobe Illustrator 16.0.0, SVG Export Plug-In . SVG Version: 6.00 Build 0)  -->
<!DOCTYPE svg PUBLIC "-//W3C//DTD SVG 1.1//EN" "http://www.w3.org/Graphics/SVG/1.1/DTD/svg11.dtd">
<svg version="1.1" id="Layer_1" xmlns="http://www.w3.org/2000/svg" xmlns:xlink="http://www.w3.org/1999/xlink" x="0px" y="0px"
	 width="51.911px" height="51.912px" viewBox="0 0 51.911 51.912" enable-background="new 0 0 51.911 51.912" xml:space="preserve">
<g>
	<path fill="#2C4C98" d="M51.828,25.956c0,14.288-11.584,25.872-25.873,25.872S0.083,40.244,0.083,25.956
		c0-14.289,11.583-25.873,25.872-25.873S51.828,11.667,51.828,25.956L51.828,25.956z M51.828,25.956"/>
	<path fill="#253464" d="M34.65,20.354c-2.066,0-3.65,0.379-4.754,1.132l-4.988-4.923c-0.776-0.825-1.697-1.377-2.762-1.656
		c-1.534-0.412-5.195-0.336-12.585-0.336v22.31l14.902,14.904c0.494,0.027,0.991,0.043,1.491,0.043
		c11.973,0,22.044-8.133,24.996-19.174L40.398,22.101v0.002C39.063,20.753,37.065,20.354,34.65,20.354L34.65,20.354z M34.65,20.354"
		/>
	<path fill="#79C6D7" d="M9.562,36.881v-22.31c7.39,0,11.051-0.076,12.585,0.336c1.278,0.334,2.348,1.063,3.211,2.184
		c1.671,2.172,1.597,5.829,0.548,7.799c-0.949,1.782-2.549,2.89-4.23,3.257c-1.979,0.392-4.91,0.319-7.608,0.319v8.415H9.562z
		 M14.066,18.346v6.331c4.563,0,6.344,0.147,7.433-1.445c0.724-1.059,0.708-2.732-0.205-3.744
		C20.152,18.226,18.906,18.346,14.066,18.346L14.066,18.346z M14.066,18.346"/>
	<path fill="#79C6D7" d="M27.253,32.271l4.292-0.654c0.399,1.819,1.627,2.542,3.455,2.542c1.395,0,3.058-0.35,3.058-1.75
		c0-0.941-0.786-1.15-1.733-1.371c-3.449-0.76-5.637-1.455-6.56-2.084c-1.278-0.873-1.918-2.086-1.918-3.638
		c0-1.4,0.553-2.576,1.659-3.531c1.105-0.953,2.82-1.43,5.145-1.43c3.529,0,6.165,0.848,7.15,4.277l-4.031,0.745
		c-0.173-0.63-0.5-1.11-0.982-1.446c-1.102-0.766-3.629-0.58-4.482-0.029c-0.606,0.418-0.676,1.182-0.061,1.643
		c1.238,0.912,6.529,1.245,8.766,3.104c0.894,0.76,1.34,1.821,1.34,3.181c0,1.481-0.619,2.755-1.856,3.819
		c-1.237,1.065-3.069,1.598-5.493,1.598c-2.202,0-3.944-0.445-5.229-1.338C28.488,35.015,27.649,33.803,27.253,32.271L27.253,32.271
		z M27.253,32.271"/>
</g>
</svg>
