<?xml version="1.0" encoding="utf-8"?>
<!-- Generator: Adobe Illustrator 16.0.0, SVG Export Plug-In . SVG Version: 6.00 Build 0)  -->
<!DOCTYPE svg PUBLIC "-//W3C//DTD SVG 1.1//EN" "http://www.w3.org/Graphics/SVG/1.1/DTD/svg11.dtd">
<svg version="1.1" id="Layer_1" xmlns="http://www.w3.org/2000/svg" xmlns:xlink="http://www.w3.org/1999/xlink" x="0px" y="0px"
	 width="495.564px" height="495.553px" viewBox="0.331 0.334 495.564 495.553" enable-background="new 0.331 0.334 495.564 495.553"
	 xml:space="preserve">
<g>
	<path fill="#F0F0F0" d="M495.895,248.104c0-30.307-5.452-59.33-15.417-86.198l-232.376-10.77l-232.368,10.77
		C5.78,188.774,0.331,217.797,0.331,248.104c0,30.295,5.449,59.341,15.403,86.181l232.368,10.775l232.376-10.775
		C490.443,307.445,495.895,278.399,495.895,248.104L495.895,248.104z M495.895,248.104"/>
	<path fill="#1E57A6" d="M248.102,495.887c106.541,0,197.365-67.25,232.376-161.602H15.734
		C50.758,428.637,141.57,495.887,248.102,495.887L248.102,495.887z M248.102,495.887"/>
	<path fill="#D71F2A" d="M15.734,161.907h464.744C445.468,67.563,354.643,0.334,248.102,0.334
		C141.57,0.334,50.758,67.563,15.734,161.907L15.734,161.907z M15.734,161.907"/>
	<path fill="#4D81C2" d="M312.741,172.698h-43.089l7.196-53.87l28.704-21.55l28.737,21.55v43.079L312.741,172.698z M312.741,172.698
		"/>
	<path fill="#4D81C2" d="M183.465,172.698h43.099l-7.188-53.87l-28.725-21.55l-28.726,21.55v43.079L183.465,172.698z
		 M183.465,172.698"/>
	<path fill="#1E57A6" d="M276.848,172.698h-57.473v-53.87l28.727-21.55l28.746,21.55V172.698z M276.848,172.698"/>
	<path fill="#F0F0F0" d="M161.926,161.907v118.516c0,28.229,13.627,53.31,34.648,69.051l15.086-3.779l19.027,19.151
		c5.634,1.163,11.453,1.766,17.416,1.766c5.94,0,11.738-0.603,17.333-1.758l21.726-18.097l12.472,2.675
		c21.019-15.73,34.657-40.804,34.657-69.009V161.907H161.926z M161.926,161.907"/>
	<rect x="161.926" y="161.907" fill="#D71F2A" width="34.471" height="34.484"/>
	<rect x="230.873" y="161.907" fill="#D71F2A" width="34.472" height="34.484"/>
	<rect x="299.816" y="161.907" fill="#D71F2A" width="34.474" height="34.484"/>
	<rect x="196.397" y="196.391" fill="#D71F2A" width="34.476" height="34.481"/>
	<rect x="265.344" y="196.391" fill="#D71F2A" width="34.472" height="34.481"/>
	<rect x="161.926" y="230.863" fill="#D71F2A" width="34.471" height="34.474"/>
	<rect x="196.397" y="265.337" fill="#D71F2A" width="34.476" height="34.461"/>
	<rect x="230.873" y="230.863" fill="#D71F2A" width="34.472" height="34.474"/>
	<rect x="299.816" y="230.863" fill="#D71F2A" width="34.474" height="34.474"/>
	<rect x="265.344" y="265.337" fill="#D71F2A" width="34.472" height="34.461"/>
	<rect x="230.873" y="299.798" fill="#D71F2A" width="34.472" height="34.472"/>
	<path fill="#D71F2A" d="M196.397,299.821h-32.246c2.958,12.789,8.78,24.518,16.74,34.448h15.505V299.821z M196.397,299.821"/>
	<path fill="#D71F2A" d="M299.816,334.27h15.517c7.963-9.931,13.771-21.659,16.732-34.448h-32.249V334.27z M299.816,334.27"/>
	<path fill="#D71F2A" d="M196.397,334.27v15.059c10.037,7.544,21.736,12.947,34.476,15.537V334.27H196.397z M196.397,334.27"/>
	<path fill="#D71F2A" d="M265.344,334.27v30.596c12.73-2.59,24.447-7.993,34.472-15.537V334.27H265.344z M265.344,334.27"/>
</g>
</svg>
