<?xml version="1.0" encoding="utf-8"?>
<!-- Generator: Adobe Illustrator 16.0.0, SVG Export Plug-In . SVG Version: 6.00 Build 0)  -->
<!DOCTYPE svg PUBLIC "-//W3C//DTD SVG 1.1//EN" "http://www.w3.org/Graphics/SVG/1.1/DTD/svg11.dtd">
<svg version="1.1" xmlns="http://www.w3.org/2000/svg" xmlns:xlink="http://www.w3.org/1999/xlink" x="0px" y="0px"
	 width="141.732px" height="141.732px" viewBox="0 0 141.732 141.732" enable-background="new 0 0 141.732 141.732"
	 xml:space="preserve">
<g id="Layer_1">
	<g id="code_x5F_html5">
	</g>
	<g>
		<linearGradient id="SVGID_1_" gradientUnits="userSpaceOnUse" x1="18.9497" y1="113.7715" x2="116.8388" y2="38.1019">
			<stop  offset="0" style="stop-color:#121134"/>
			<stop  offset="1" style="stop-color:#602D50"/>
		</linearGradient>
		<path fill="url(#SVGID_1_)" d="M128.56,114.326c0,8.413-6.82,15.233-15.232,15.233H30.405c-8.412,0-15.232-6.82-15.232-15.233
			V31.404c0-8.411,6.82-15.231,15.232-15.231h82.922c8.412,0,15.232,6.82,15.232,15.231V114.326z"/>
		<g>
			<path fill="#FFFFFF" d="M42.438,37.365h33.11c18.741,0,22.791,13.321,22.791,18.582c0,10.638-6.032,13.358-9.044,14.58
				c4.575,1.291,11.998,5.193,11.998,18.723c0,3.868-0.488,19.116-24.889,19.116H42.438V37.365z M60.766,65.116h10.079
				c7.458,0,8.21-4.887,8.21-7.229c0-2.171-1.356-6.923-8.08-6.923H60.766V65.116z M60.766,95.965h11.556
				c9.609,0,10.169-6.761,10.169-9.138c0-2.206-0.828-9.028-10.212-9.028H60.766V95.965z"/>
		</g>
	</g>
</g>
<g id="Layer_2">
</g>
</svg>
