<?xml version="1.0" encoding="utf-8"?>
<!-- Generator: Adobe Illustrator 16.0.0, SVG Export Plug-In . SVG Version: 6.00 Build 0)  -->
<!DOCTYPE svg PUBLIC "-//W3C//DTD SVG 1.1//EN" "http://www.w3.org/Graphics/SVG/1.1/DTD/svg11.dtd">
<svg version="1.1" id="Layer_1" xmlns="http://www.w3.org/2000/svg" xmlns:xlink="http://www.w3.org/1999/xlink" x="0px" y="0px"
	 width="495.564px" height="495.553px" viewBox="0.331 0.334 495.564 495.553" enable-background="new 0.331 0.334 495.564 495.553"
	 xml:space="preserve">
<g>
	<path fill="#F0F0F0" d="M493.475,248.692c0,135.476-109.833,245.3-245.3,245.3c-135.495,0-245.309-109.824-245.309-245.3
		S112.68,3.384,248.176,3.384C383.642,3.384,493.475,113.217,493.475,248.692L493.475,248.692z M493.475,248.692"/>
	<path fill="#1E57A6" d="M53.566,99.343c-19.272,25.067-33.803,53.965-42.256,85.354h127.62L53.566,99.343z M53.566,99.343"/>
	<path fill="#1E57A6" d="M485.022,184.697c-8.465-31.389-22.984-60.287-42.257-85.354l-85.363,85.354H485.022z M485.022,184.697"/>
	<path fill="#1E57A6" d="M11.31,312.679c8.464,31.397,22.984,60.287,42.256,85.363l85.344-85.363H11.31z M11.31,312.679"/>
	<path fill="#1E57A6" d="M397.506,54.094c-25.067-19.263-53.957-33.803-85.344-42.256v127.608L397.506,54.094z M397.506,54.094"/>
	<path fill="#1E57A6" d="M98.816,443.282c25.078,19.272,53.966,33.803,85.354,42.268V357.93L98.816,443.282z M98.816,443.282"/>
	<path fill="#1E57A6" d="M184.17,11.837c-31.388,8.453-60.276,22.993-85.354,42.256l85.354,85.352V11.837z M184.17,11.837"/>
	<path fill="#1E57A6" d="M312.162,485.55c31.387-8.465,60.287-22.995,85.344-42.257l-85.344-85.363V485.55z M312.162,485.55"/>
	<path fill="#1E57A6" d="M357.402,312.679l85.363,85.363c19.272-25.076,33.792-53.966,42.257-85.363H357.402z M357.402,312.679"/>
	<path fill="#D71F2A" d="M491.403,216.689H280.17V5.447c-10.476-1.356-21.154-2.063-31.994-2.063
		c-10.859,0-21.527,0.707-32.003,2.063v211.243H4.93c-1.356,10.476-2.063,21.154-2.063,32.003c0,10.84,0.707,21.527,2.063,31.994
		h211.243v211.242c10.476,1.354,21.144,2.063,32.003,2.063c10.84,0,21.519-0.709,31.994-2.063V280.687h211.233
		c1.354-10.467,2.072-21.154,2.072-31.994C493.475,237.844,492.758,227.165,491.403,216.689L491.403,216.689z M491.403,216.689"/>
	<path fill="#D71F2A" d="M312.162,312.679l109.46,109.469c5.025-5.034,9.838-10.293,14.419-15.743l-93.715-93.726H312.162z
		 M312.162,312.679"/>
	<path fill="#D71F2A" d="M184.17,312.679L184.17,312.679L74.701,422.147c5.045,5.036,10.304,9.851,15.754,14.43l93.715-93.724
		V312.679z M184.17,312.679"/>
	<path fill="#D71F2A" d="M184.17,184.697L74.701,75.216c-5.025,5.058-9.829,10.314-14.419,15.775l93.724,93.706H184.17z
		 M184.17,184.697"/>
	<path fill="#D71F2A" d="M312.162,184.697L421.633,75.216c-5.036-5.015-10.306-9.827-15.756-14.408l-93.715,93.715V184.697z
		 M312.162,184.697"/>
</g>
</svg>
