<?xml version="1.0" encoding="utf-8"?>
<!-- Generator: Adobe Illustrator 16.0.0, SVG Export Plug-In . SVG Version: 6.00 Build 0)  -->
<!DOCTYPE svg PUBLIC "-//W3C//DTD SVG 1.1//EN" "http://www.w3.org/Graphics/SVG/1.1/DTD/svg11.dtd">
<svg version="1.1" id="Layer_1" xmlns="http://www.w3.org/2000/svg" xmlns:xlink="http://www.w3.org/1999/xlink" x="0px" y="0px"
	 width="54.195px" height="53px" viewBox="0 0 54.195 53" enable-background="new 0 0 54.195 53" xml:space="preserve">
<g>
	<g>
		<path fill="#FFFFFF" d="M26.479,14.214c-0.777,0-1.543,0.053-2.293,0.152v5.208c0.742-0.145,1.508-0.221,2.293-0.221
			c6.58,0,11.918,5.336,11.918,11.917c0,6.582-5.338,11.918-11.918,11.918c-6.582,0-11.92-5.336-11.92-11.918
			c0-1.691,0.354-3.299,0.99-4.759v-8.335C11.803,21.305,9.42,26.009,9.42,31.27c0,9.42,7.639,17.057,17.059,17.057
			c9.418,0,17.057-7.637,17.057-17.057C43.535,21.851,35.896,14.214,26.479,14.214z M26.479,40.407c5.047,0,9.137-4.09,9.137-9.137
			c0-5.045-4.09-9.136-9.137-9.136c-1.611,0-3.123,0.416-4.438,1.148v-8.483c-1.686,0.453-3.266,1.154-4.701,2.068V31.27
			C17.34,36.317,21.43,40.407,26.479,40.407z M26.479,26.834c2.449,0,4.436,1.989,4.436,4.436c0,2.451-1.986,4.438-4.436,4.438
			c-2.451,0-4.438-1.986-4.438-4.438C22.041,28.823,24.027,26.834,26.479,26.834z M26.479,22.134c-1.611,0-3.123,0.416-4.438,1.148
			v7.988c0-2.447,1.986-4.436,4.438-4.436c2.449,0,4.436,1.989,4.436,4.436c0,2.451-1.986,4.438-4.436,4.438
			c-2.451,0-4.438-1.986-4.438-4.438H17.34c0,5.047,4.09,9.137,9.139,9.137c5.047,0,9.137-4.09,9.137-9.137
			C35.615,26.225,31.525,22.134,26.479,22.134z"/>
		<path fill="#FFFFFF" d="M26.479,22.134c-1.611,0-3.123,0.416-4.438,1.148v-3.074c-1.84,0.736-3.449,1.918-4.701,3.414v7.648
			c0,5.047,4.09,9.137,9.139,9.137c5.047,0,9.137-4.09,9.137-9.137C35.615,26.225,31.525,22.134,26.479,22.134z M26.479,35.708
			c-2.451,0-4.438-1.986-4.438-4.438c0-2.447,1.986-4.436,4.438-4.436c2.449,0,4.436,1.989,4.436,4.436
			C30.914,33.721,28.928,35.708,26.479,35.708z"/>
		<path fill="#FFFFFF" d="M26.479,22.134c-1.611,0-3.123,0.416-4.438,1.148c-2.805,1.56-4.701,4.553-4.701,7.988
			c0,5.047,4.09,9.137,9.139,9.137c5.047,0,9.137-4.09,9.137-9.137C35.615,26.225,31.525,22.134,26.479,22.134z M26.479,35.708
			c-2.451,0-4.438-1.986-4.438-4.438c0-2.447,1.986-4.436,4.438-4.436c2.449,0,4.436,1.989,4.436,4.436
			C30.914,33.721,28.928,35.708,26.479,35.708z"/>
		<rect x="17.34" y="3.807" fill="#FFFFFF" width="4.701" height="27.463"/>
		<line fill="#FFFFFF" x1="24.186" y1="14.366" x2="24.186" y2="14.214"/>
	</g>
</g>
</svg>
