<?xml version="1.0" encoding="utf-8"?>
<!-- Generator: Adobe Illustrator 16.0.0, SVG Export Plug-In . SVG Version: 6.00 Build 0)  -->
<!DOCTYPE svg PUBLIC "-//W3C//DTD SVG 1.1//EN" "http://www.w3.org/Graphics/SVG/1.1/DTD/svg11.dtd">
<svg version="1.1" id="Layer_1" xmlns="http://www.w3.org/2000/svg" xmlns:xlink="http://www.w3.org/1999/xlink" x="0px" y="0px"
	 width="405.354px" height="279.188px" viewBox="0 0 405.354 279.188" enable-background="new 0 0 405.354 279.188"
	 xml:space="preserve">
<radialGradient id="SVGID_1_" cx="-212.6753" cy="2598.7529" r="75.7698" fx="-190.8246" fy="2598.6587" gradientTransform="matrix(2.2339 0 0 0.1655 644.3365 -203.3054)" gradientUnits="userSpaceOnUse">
	<stop  offset="0.1613" style="stop-color:#333333"/>
	<stop  offset="0.3763" style="stop-color:#8F8F8F"/>
	<stop  offset="0.3824" style="stop-color:#919191"/>
	<stop  offset="0.5825" style="stop-color:#C0C0C0"/>
	<stop  offset="0.7593" style="stop-color:#E2E2E2"/>
	<stop  offset="0.9045" style="stop-color:#F7F7F7"/>
	<stop  offset="1" style="stop-color:#FFFFFF"/>
</radialGradient>
<path fill-rule="evenodd" clip-rule="evenodd" fill="url(#SVGID_1_)" d="M338.482,226.792c0,6.92-75.771,12.537-169.241,12.537
	S0,233.712,0,226.792c0-6.928,75.771-12.546,169.241-12.546S338.482,219.864,338.482,226.792z"/>
<linearGradient id="SVGID_2_" gradientUnits="userSpaceOnUse" x1="206.4365" y1="197.7539" x2="206.4365" y2="237.4643">
	<stop  offset="0" style="stop-color:#E5E6E8"/>
	<stop  offset="0.057" style="stop-color:#E1E2E4"/>
	<stop  offset="0.1097" style="stop-color:#D7D8D9"/>
	<stop  offset="0.1608" style="stop-color:#C5C5C6"/>
	<stop  offset="0.2106" style="stop-color:#ACACAC"/>
	<stop  offset="0.2312" style="stop-color:#9F9F9F"/>
	<stop  offset="0.6559" style="stop-color:#EBEBEB"/>
	<stop  offset="0.7275" style="stop-color:#EFEFEF"/>
	<stop  offset="1" style="stop-color:#FFFFFF"/>
</linearGradient>
<path fill="url(#SVGID_2_)" d="M240.737,220.521c-4.13-4.08-6.591-10.75-6.591-17.877v-7.127h-55.422v7.127
	c0,7.127-2.46,13.797-6.591,17.877l-6.493,6.403h81.592L240.737,220.521z"/>
<linearGradient id="SVGID_3_" gradientUnits="userSpaceOnUse" x1="169.7588" y1="227.7246" x2="230.3244" y2="228.1065">
	<stop  offset="0" style="stop-color:#E5E6E8"/>
	<stop  offset="0.057" style="stop-color:#E1E2E4"/>
	<stop  offset="0.1097" style="stop-color:#D7D8D9"/>
	<stop  offset="0.1608" style="stop-color:#C5C5C6"/>
	<stop  offset="0.2106" style="stop-color:#ACACAC"/>
	<stop  offset="0.2312" style="stop-color:#9F9F9F"/>
	<stop  offset="0.3396" style="stop-color:#B3B3B3"/>
	<stop  offset="0.7174" style="stop-color:#F6F6F6"/>
	<stop  offset="0.8979" style="stop-color:#EBEBEB"/>
	<stop  offset="0.9191" style="stop-color:#EFEFEF"/>
	<stop  offset="1" style="stop-color:#FFFFFF"/>
</linearGradient>
<rect x="165.641" y="226.924" fill="url(#SVGID_3_)" width="81.592" height="2.063"/>
<linearGradient id="SVGID_4_" gradientUnits="userSpaceOnUse" x1="73.0771" y1="208.2344" x2="273.3425" y2="67.5252">
	<stop  offset="0" style="stop-color:#494949"/>
	<stop  offset="0.0615" style="stop-color:#454545"/>
	<stop  offset="0.1185" style="stop-color:#3A3A3A"/>
	<stop  offset="0.1736" style="stop-color:#272727"/>
	<stop  offset="0.2273" style="stop-color:#0D0D0D"/>
	<stop  offset="0.2312" style="stop-color:#0B0B0B"/>
	<stop  offset="0.3281" style="stop-color:#151515"/>
	<stop  offset="1" style="stop-color:#575858"/>
</linearGradient>
<path fill="url(#SVGID_4_)" d="M322.932,187.005V44.443c0-2.529-2.051-4.583-4.582-4.583H94.523c-2.531,0-4.581,2.055-4.581,4.583
	v142.562H322.932z"/>
<linearGradient id="SVGID_5_" gradientUnits="userSpaceOnUse" x1="62.6748" y1="265.5713" x2="347.3945" y2="105.4927">
	<stop  offset="0.0269" style="stop-color:#B9B9B9"/>
	<stop  offset="0.8871" style="stop-color:#FFFFFF"/>
</linearGradient>
<path fill="url(#SVGID_5_)" d="M89.942,173.149v20.509c0,2.532,2.05,4.583,4.581,4.583H318.35c2.531,0,4.582-2.051,4.582-4.583
	v-20.509H89.942z"/>
<rect x="97.033" y="47.086" fill="#010101" width="218.614" height="118.351"/>
<image overflow="visible" width="1084" height="870" xlink:href="5ED6B7D4.jpg"  transform="matrix(0.136 0 0 0.136 132.084 47.0859)">
</image>
<linearGradient id="SVGID_6_" gradientUnits="userSpaceOnUse" x1="372.8389" y1="110.0044" x2="110.1131" y2="116.7253">
	<stop  offset="0" style="stop-color:#010101"/>
	<stop  offset="0.2911" style="stop-color:#030303"/>
	<stop  offset="0.4288" style="stop-color:#0B0B0B"/>
	<stop  offset="0.5343" style="stop-color:#181818"/>
	<stop  offset="0.6235" style="stop-color:#2A2A2A"/>
	<stop  offset="0.7024" style="stop-color:#424242"/>
	<stop  offset="0.7739" style="stop-color:#5F5F5F"/>
	<stop  offset="0.8398" style="stop-color:#828282"/>
	<stop  offset="0.9015" style="stop-color:#ABABAB"/>
	<stop  offset="0.9576" style="stop-color:#D8D8D8"/>
	<stop  offset="1" style="stop-color:#FFFFFF"/>
</linearGradient>
<path fill="url(#SVGID_6_)" d="M318.35,39.859H154.74l87.434,147.146h80.758V44.443C322.932,41.914,320.881,39.859,318.35,39.859z"
	/>
</svg>
