<?xml version="1.0" encoding="utf-8"?>
<!-- Generator: Adobe Illustrator 16.0.0, SVG Export Plug-In . SVG Version: 6.00 Build 0)  -->
<!DOCTYPE svg PUBLIC "-//W3C//DTD SVG 1.1//EN" "http://www.w3.org/Graphics/SVG/1.1/DTD/svg11.dtd">
<svg version="1.1" id="Layer_1" xmlns="http://www.w3.org/2000/svg" xmlns:xlink="http://www.w3.org/1999/xlink" x="0px" y="0px"
	 width="1200px" height="1200px" viewBox="0 0 1200 1200" enable-background="new 0 0 1200 1200" xml:space="preserve">
<path fill="#BFBFBF" d="M939.476,228.55H248.524c-16.19,0-29.523,13.095-29.523,29.524v488.571v84.047
	c0,16.191,13.095,29.525,29.523,29.525h690.952c16.19,0,29.524-13.096,29.524-29.525v-84.047V258.074
	C969,241.645,955.905,228.55,939.476,228.55z"/>
<rect x="290.714" y="297.283" fill="#FFFFFF" width="618.81" height="500.238"/>
<rect x="364.524" y="927.76" fill="#BFBFBF" width="470.714" height="53.809"/>
<polygon fill="#808080" points="782.619,927.76 748.809,863.236 451.19,863.236 417.381,927.76 "/>
<g>
	<rect x="368.603" y="295.764" fill="#FFFFFF" width="463.032" height="501.758"/>
</g>
<path fill="#FCD462" d="M463.033,371.687H404.92c-1.875,0-3.748,1.875-3.748,4.687v29.057c0,2.812,1.875,4.687,3.748,4.687h58.113
	c1.875,0,3.749-1.875,3.749-4.687v-29.996C467.719,373.56,465.845,371.687,463.033,371.687z"/>
<path fill="#F38081" d="M546.453,371.687H488.34c-1.875,0-3.748,1.875-3.748,4.687v29.057c0,2.812,1.875,4.687,3.748,4.687h58.113
	c1.876,0,3.749-1.875,3.749-4.687v-29.996C550.202,373.56,548.329,371.687,546.453,371.687z"/>
<path fill="#44C4A1" d="M628.937,371.687h-58.113c-1.875,0-3.748,1.875-3.748,4.687v29.057c0,2.812,1.875,4.687,3.748,4.687h58.113
	c1.875,0,3.75-1.875,3.75-4.687v-29.996C632.688,373.56,630.812,371.687,628.937,371.687z"/>
<path fill="#F38081" d="M712.359,371.687h-58.113c-1.875,0-3.749,1.875-3.749,4.687v29.057c0,2.812,1.876,4.687,3.749,4.687h58.113
	c1.875,0,3.749-1.875,3.749-4.687v-29.996C716.108,373.56,714.233,371.687,712.359,371.687z"/>
<g>
	<path fill="#64798A" d="M794.843,371.687h-58.114c-1.875,0-3.748,1.875-3.748,4.687v29.057c0,2.812,1.874,4.687,3.748,4.687h58.114
		c1.875,0,3.748-1.875,3.748-4.687v-29.996C798.591,373.56,796.716,371.687,794.843,371.687z"/>
	<rect x="368.365" y="424.177" fill="#64798A" width="463.032" height="164.03"/>
</g>
<g>
	<polygon fill="#EBF0F3" points="403.982,519.783 392.735,506.66 403.982,493.538 408.669,499.162 402.109,506.66 408.669,514.157 	
		"/>
	<polygon fill="#EBF0F3" points="795.779,519.783 807.027,506.66 795.779,493.538 791.092,499.162 797.655,506.66 791.092,514.157 	
		"/>
</g>
<rect x="401.17" y="604.139" fill="#FCD462" width="116.228" height="118.102"/>
<rect x="541.767" y="604.139" fill="#64798A" width="116.228" height="118.102"/>
<rect x="682.365" y="604.139" fill="#F38081" width="116.227" height="118.102"/>
<rect x="401.17" y="706.307" fill="#F6C358" width="116.228" height="15.936"/>
<rect x="541.767" y="706.307" fill="#323D45" width="116.228" height="15.936"/>
<rect x="682.365" y="706.307" fill="#D15241" width="116.227" height="15.936"/>
<g>
	<rect x="401.17" y="757.859" fill="#E1E6E9" width="116.228" height="15.934"/>
	<rect x="541.767" y="757.859" fill="#E1E6E9" width="116.228" height="15.934"/>
	<rect x="682.365" y="757.859" fill="#E1E6E9" width="116.227" height="15.934"/>
</g>
<rect x="368.365" y="295.764" fill="#64798A" width="463.032" height="60.925"/>
<rect x="395.669" y="310.48" fill="#EBF0F3" width="270.883" height="30.932"/>
<ellipse fill="#FCD462" cx="698.298" cy="326.696" rx="16.871" ry="15.934"/>
<ellipse fill="#44C4A1" cx="742.353" cy="326.696" rx="16.871" ry="15.934"/>
<ellipse fill="#F38081" cx="786.406" cy="326.696" rx="16.871" ry="15.934"/>
<g opacity="0.4">
	<g>
		<path fill="#404040" d="M570.928,613.008h20.69l64.223-64.224c0,0-29.396-36.215-63.125,6.508
			C578.392,573.44,572.944,596.43,570.928,613.008z"/>
		<path fill="#404040" d="M591.618,613.008h56.287c0.484-0.359,0.956-0.73,1.428-1.102c42.712-33.73,6.508-63.122,6.508-63.122
			L591.618,613.008z"/>
		<path fill="#404040" d="M696.643,507.984l183.021-183.019c-10.548-10.547-73.175,34.968-139.883,101.675
			c-22.77,22.77-43.064,45.065-59.512,64.972L696.643,507.984z"/>
		
			<rect x="651.263" y="498.78" transform="matrix(0.7071 0.7071 -0.7071 0.7071 572.4639 -321.5885)" fill="#404040" width="46.297" height="62.859"/>
		
			<rect x="643.53" y="528.605" transform="matrix(0.7071 0.7071 -0.7071 0.7071 574.0453 -317.7119)" fill="#404040" width="54.017" height="10.959"/>
		
			<rect x="653.837" y="523.253" transform="matrix(0.7071 0.7071 -0.7071 0.7071 571.1931 -324.381)" fill="#404040" width="46.603" height="8.023"/>
		<path fill="#404040" d="M777.982,464.841c66.708-66.708,112.225-129.334,101.682-139.876L696.643,507.984l16.371,16.371
			C732.919,507.907,755.213,487.612,777.982,464.841z"/>
		<path fill="#404040" d="M570.928,613.008h76.978c-32.096,24.213-78.057,21.766-78.057,21.766S569.376,625.803,570.928,613.008z"/>
	</g>
</g>
<g>
	<g>
		<path fill="#434343" d="M574.929,605h20.69l64.223-64.224c0,0-29.396-36.215-63.125,6.508
			C582.393,565.432,576.945,588.422,574.929,605z"/>
		<path fill="#1C1C1C" d="M595.619,605h56.287c0.484-0.359,0.956-0.73,1.428-1.102c42.712-33.73,6.508-63.123,6.508-63.123
			L595.619,605z"/>
		<path fill="#BFBFBF" d="M700.644,499.976l183.021-183.019c-10.548-10.547-73.175,34.968-139.883,101.675
			c-22.77,22.77-43.064,45.065-59.512,64.972L700.644,499.976z"/>
		
			<rect x="655.264" y="490.771" transform="matrix(0.7071 0.7071 -0.7071 0.7071 567.9795 -326.7642)" fill="#5C5B5B" width="46.298" height="62.859"/>
		
			<rect x="647.531" y="520.597" transform="matrix(0.7071 0.7071 -0.7071 0.7071 569.5544 -322.8866)" fill="#807F7F" width="54.017" height="10.959"/>
		
			<rect x="657.838" y="515.244" transform="matrix(0.7071 0.7071 -0.7071 0.7071 566.7021 -329.556)" fill="#434343" width="46.603" height="8.023"/>
		<path fill="#808080" d="M781.983,456.833c66.708-66.708,112.225-129.334,101.682-139.876L700.644,499.976l16.371,16.371
			C736.92,499.898,759.214,479.604,781.983,456.833z"/>
		<path fill="#64798A" d="M574.929,605h76.978c-32.096,24.213-78.057,21.766-78.057,21.766S573.377,617.795,574.929,605z"/>
	</g>
</g>
</svg>
